HIERARCHY
ROOT Hips
{
	OFFSET -3.958830 18.904000 13.208200
	CHANNELS 6 Xposition Yposition Zposition Zrotation Yrotation Xrotation 
	JOINT LHipJoint
	{
		OFFSET 0.000000 0.000000 0.000000
		CHANNELS 3 Zrotation Yrotation Xrotation
		JOINT LeftUpLeg
		{
			OFFSET 1.800000 -1.400000 0.085000
			CHANNELS 3 Zrotation Yrotation Xrotation
			JOINT LeftLeg
			{
				OFFSET 2.215000 -6.000000 0.000000
				CHANNELS 3 Zrotation Yrotation Xrotation
				JOINT LeftFoot
				{
					OFFSET 2.500000 -6.900000 0.000000
					CHANNELS 3 Zrotation Yrotation Xrotation
					JOINT LeftToeBase
					{
						OFFSET 0.200000 -0.500000 1.950000
						CHANNELS 3 Zrotation Yrotation Xrotation
						End Site
						{
							OFFSET 0.000000 0.000000 0.000000
						}
					}
				}
			}
		}
	}
	JOINT RHipJoint
	{
		OFFSET 0.000000 0.000000 0.000000
		CHANNELS 3 Zrotation Yrotation Xrotation
		JOINT RightUpLeg
		{
			OFFSET -1.800000 -1.400000 0.085000
			CHANNELS 3 Zrotation Yrotation Xrotation
			JOINT RightLeg
			{
				OFFSET -2.215000 -6.000000 0.000000
				CHANNELS 3 Zrotation Yrotation Xrotation
				JOINT RightFoot
				{
					OFFSET -2.500000 -6.900000 0.000000
					CHANNELS 3 Zrotation Yrotation Xrotation
					JOINT RightToeBase
					{
						OFFSET -0.200000 -0.500000 1.950000
						CHANNELS 3 Zrotation Yrotation Xrotation
						End Site
						{
							OFFSET 0.000000 0.000000 0.000000
						}
					}
				}
			}
		}
	}
	JOINT LowerBack
	{
		OFFSET 0.000000 0.000000 0.000000
		CHANNELS 3 Zrotation Yrotation Xrotation
		JOINT Spine
		{
			OFFSET -0.087000 1.940000 -0.288900
			CHANNELS 3 Zrotation Yrotation Xrotation
			JOINT Spine1
			{
				OFFSET 0.000000 1.950000 0.060000
				CHANNELS 3 Zrotation Yrotation Xrotation
				JOINT Neck
				{
					OFFSET 0.000000 0.000000 0.000000
					CHANNELS 3 Zrotation Yrotation Xrotation
					JOINT Neck1
					{
						OFFSET 0.000000 1.600000 0.340000
						CHANNELS 3 Zrotation Yrotation Xrotation
						JOINT Head
						{
							OFFSET 0.000000 1.667000 -0.240000
							CHANNELS 3 Zrotation Yrotation Xrotation
							End Site
							{
								OFFSET 0.000000 0.000000 0.000000
							}
						}
					}
				}
				JOINT LeftShoulder
				{
					OFFSET 0.000000 0.000000 0.000000
					CHANNELS 3 Zrotation Yrotation Xrotation
					JOINT LeftArm
					{
						OFFSET 2.700000 1.550000 -0.730000
						CHANNELS 3 Zrotation Yrotation Xrotation
						JOINT LeftForeArm
						{
							OFFSET 5.450000 0.000000 0.000000
							CHANNELS 3 Zrotation Yrotation Xrotation
							JOINT LeftHand
							{
								OFFSET 3.450000 0.000000 0.000000
								CHANNELS 3 Zrotation Yrotation Xrotation
								JOINT LeftHandIndex1
								{
									OFFSET 0.750000 0.000000 0.000000
									CHANNELS 3 Zrotation Yrotation Xrotation
									End Site
									{
										OFFSET 0.000000 0.000000 0.000000
									}
								}
							}
						}
					}
				}
				JOINT RightShoulder
				{
					OFFSET 0.000000 0.000000 0.000000
					CHANNELS 3 Zrotation Yrotation Xrotation
					JOINT RightArm
					{
						OFFSET -2.700000 1.550000 -0.730000
						CHANNELS 3 Zrotation Yrotation Xrotation
						JOINT RightForeArm
						{
							OFFSET -5.450000 0.000000 0.000000
							CHANNELS 3 Zrotation Yrotation Xrotation
							JOINT RightHand
							{
								OFFSET -3.450000 0.000000 0.000000
								CHANNELS 3 Zrotation Yrotation Xrotation
								JOINT RightHandIndex1
								{
									OFFSET -0.750000 0.000000 0.000000
									CHANNELS 3 Zrotation Yrotation Xrotation
									End Site
									{
										OFFSET 0.000000 0.000000 0.000000
									}
								}
							}
						}
					}
				}
			}
		}
	}
}
MOTION
Frames: 12
Frame Time: 0.016667
-1.608240 16.424390 -12.910470 -4.832214 -20.472538 -3.250648 -14.707267 11.494974 4.451577 -3.163172 -4.968482 -37.863143 -9.530332 13.986119 45.623013 0.262876 8.566189 1.418773 0.536170 0.260950 0.401030 18.766367 -10.801214 3.945630 10.305012 0.795392 9.089437 16.684177 -11.311820 27.532702 -1.613889 -6.646896 2.172743 0.050070 -0.058300 0.127630 -4.862466 0.945177 -9.032146 12.953455 4.738839 18.325369 -12.627284 11.137261 -1.026791 0.902547 -8.964303 -18.092530 -20.581986 12.867631 55.507158 9.516050 4.107970 -24.210590 -26.198771 -16.296076 7.327214 -37.945487 5.580353 -1.409674 10.042835 5.333616 0.082486 -3.446816 2.552670 1.135930 -0.395070 0.457360 0.200960 24.788834 29.287117 11.876901 56.079749 10.841398 -4.067649 -10.684669 8.611413 -0.608399 2.273528 -1.005151 -0.217860 0.400190 -0.060080 -0.223400 
-1.625570 16.416010 -12.876780 -5.042563 -20.330906 -3.704652 -14.717970 11.658346 4.316624 -3.171402 -4.751814 -36.325359 -8.829335 13.237240 44.378354 0.148280 8.226543 1.539161 0.523990 0.226530 0.421950 18.738292 -10.770432 3.970203 9.834543 1.930302 8.079883 18.377367 -12.271845 29.904153 -1.674377 -6.987290 2.058092 0.047930 -0.053600 0.125010 -4.795619 0.685352 -9.021141 13.229654 4.311736 18.591823 -12.862921 11.050971 0.793166 1.761597 -8.637447 -19.137921 -20.341309 12.482476 55.422636 7.820940 3.996750 -23.761030 -27.226882 -18.904567 8.083076 -38.116914 5.148249 -1.237026 10.172413 5.837800 0.104819 -3.456682 2.539539 1.149190 -0.382960 0.446380 0.187410 24.397058 31.694513 12.606659 55.501291 11.696238 -4.250094 -10.757021 9.377165 -0.765729 2.235890 -1.011915 -0.246280 0.416730 -0.045570 -0.246250 
-1.694070 16.387750 -12.780610 -7.048776 -19.596939 -3.312518 -14.708755 11.851318 4.040576 -0.809244 -4.098406 -34.155759 -8.650526 12.597816 42.332164 0.009638 7.885331 1.653838 0.507750 0.194100 0.400830 18.757444 -10.528242 4.088683 9.617579 4.967300 4.554184 23.883663 -15.464989 35.637650 -1.897770 -8.024649 1.725865 0.053370 -0.025330 0.125230 -4.853747 0.174945 -8.989965 15.907811 2.616678 18.571720 -13.592900 10.131612 2.410636 2.766043 -8.817305 -19.850162 -21.549490 12.331081 52.859630 7.168320 3.232160 -23.628590 -29.768432 -21.470651 8.392795 -38.517740 3.611960 -0.810691 10.625067 6.689738 0.165237 -3.474383 2.562524 1.143790 -0.363820 0.410430 0.183960 25.054669 33.881788 13.152432 53.800953 12.613794 -4.167130 -10.045313 9.778866 -0.756593 2.204928 -1.021621 -0.271550 0.429010 -0.016470 -0.251220 
-1.777210 16.343890 -12.715180 -7.906110 -17.876106 -3.698202 -14.750583 11.943704 3.812614 0.363848 -4.215136 -31.828885 -8.172268 11.979611 41.258324 -0.075209 7.666467 1.739623 0.522570 0.220220 0.381990 18.738364 -10.200638 4.203798 6.639574 8.172718 -0.395870 31.952718 -20.238831 39.676289 -2.186436 -9.264570 1.344000 0.095150 0.012510 0.122580 -4.797509 -0.403842 -8.980378 16.548017 0.694623 19.344264 -13.202475 8.727595 6.160207 3.504488 -9.106476 -21.070830 -22.888294 11.871811 48.823484 6.940260 2.207770 -24.076060 -30.467545 -25.839697 9.117231 -38.800541 0.091567 -0.096312 9.048016 5.538540 -0.113694 -3.472963 2.587805 1.106840 -0.335890 0.373400 0.193920 24.781304 37.547465 14.229424 50.216445 14.485541 -4.540220 -10.152672 11.323308 -1.104550 2.146033 -1.059190 -0.278780 0.459310 -0.001880 -0.236920 
-1.873520 16.284620 -12.658870 -8.011653 -18.397346 -4.103956 -14.828599 12.000119 3.607112 2.140660 -3.822209 -29.487442 -9.712695 12.486474 39.555335 -0.083575 7.617687 1.755029 0.581480 0.321930 0.401700 18.659467 -9.834215 4.421693 2.053841 11.315909 -6.118467 39.768538 -25.368108 42.932427 -2.505510 -10.446568 0.992905 0.162560 -0.002290 0.118830 -4.607713 -0.907101 -9.056621 15.618995 0.110154 20.458909 -11.969126 8.077819 9.961123 4.278806 -9.301586 -22.428282 -23.572022 10.836993 45.528410 5.661880 1.400810 -26.219360 -29.315629 -29.626112 9.484807 -39.961749 -4.171172 -0.243668 9.558137 0.261902 -0.679224 -3.388326 2.632993 1.075770 -0.334790 0.388890 0.214170 22.684038 41.180891 15.353513 46.288544 17.151343 -4.846457 -10.919610 12.873606 -1.540504 2.096309 -1.106621 -0.255170 0.486300 -0.033270 -0.217990 
-1.970560 16.223430 -12.589990 -7.904661 -17.584040 -4.681140 -14.942968 12.024430 3.585731 3.853204 -4.179881 -27.827152 -11.724608 13.274664 38.944973 -0.092211 7.876877 1.652812 0.648310 0.404940 0.455360 18.544937 -9.416493 4.569098 -3.223706 12.113997 -11.141565 47.861287 -30.147445 42.796608 -2.720335 -11.141720 0.775162 0.235820 -0.023150 0.117540 -4.296603 -1.617807 -9.203104 13.741149 -0.480379 21.251272 -10.630449 6.819380 13.320248 4.744226 -8.371915 -23.486996 -22.075518 9.618515 44.022653 4.930430 1.058470 -27.796810 -27.640600 -33.267309 9.684877 -39.234357 -9.891256 -0.023670 10.450915 -3.244970 -1.263599 -3.357344 2.651388 1.083060 -0.328880 0.400990 0.217700 20.225056 43.505845 15.937692 41.928517 19.276565 -5.982054 -12.719771 15.965119 -2.438053 1.997888 -1.152331 -0.261350 0.510640 -0.055300 -0.237610 
-2.066430 16.199360 -12.540290 -7.894448 -16.045017 -5.706978 -15.080559 12.166552 3.618757 5.506346 -4.793090 -26.032896 -13.619736 13.678132 38.019529 -0.095627 8.028823 1.556928 0.739710 0.518770 0.551220 18.392708 -9.009194 4.667349 -8.169862 11.297096 -15.548703 54.264763 -34.626887 42.349337 -2.903781 -11.594842 0.591509 0.305810 -0.093660 0.172700 -3.868988 -2.577317 -9.367360 11.461884 -1.348943 22.505827 -8.923245 4.981818 17.021322 5.048258 -6.980934 -25.220562 -20.588331 9.203559 44.584587 2.930220 1.673990 -29.190860 -25.199150 -37.105208 10.236544 -36.376018 -17.491326 0.753801 12.444245 -2.919363 -1.578881 -3.422117 2.685932 1.085690 -0.330150 0.468800 0.202770 17.134010 45.564138 16.141409 36.713930 20.931763 -7.891835 -15.410299 19.321737 -3.578766 1.904532 -1.222210 -0.211490 0.482160 -0.085600 -0.258780 
-2.174510 16.179040 -12.499790 -8.207057 -14.938785 -6.328582 -15.209921 12.164992 3.691659 7.868737 -5.406078 -25.136398 -15.923681 14.491153 37.408870 -0.100319 8.405397 1.418053 0.757670 0.532740 0.590810 18.272417 -8.580295 4.832897 -13.169971 9.934381 -21.322084 61.915262 -39.897412 41.397621 -3.030553 -11.992277 0.472948 0.347220 -0.082370 0.181510 -3.516333 -3.297559 -9.573211 9.638181 -1.791453 24.046756 -6.908474 3.494128 19.061374 4.658069 -5.693723 -25.940686 -18.315088 8.436050 44.220034 1.722200 2.077870 -29.129180 -23.311679 -38.828629 10.872913 -30.256413 -24.893183 -0.122793 12.942894 -7.589317 -2.495179 -3.478763 2.624939 1.080260 -0.287960 0.452050 0.186790 15.718672 45.411036 15.606703 30.404353 20.625222 -11.849020 -18.252655 26.008794 -5.456171 1.722594 -1.261828 -0.237600 0.500530 -0.075060 -0.290800 
-2.260210 16.172770 -12.455860 -8.636639 -14.715244 -6.551839 -15.315893 12.111771 3.693179 9.936434 -5.640984 -24.486886 -17.453624 15.219563 37.027449 -0.068430 8.756084 1.307556 0.693170 0.459690 0.564920 18.199595 -8.207145 5.056079 -18.218540 8.480479 -27.301255 68.599533 -44.506667 40.336696 -3.072312 -12.266085 0.403452 0.330530 -0.020460 0.210930 -3.273513 -3.768431 -9.724659 9.011398 -1.954711 25.293349 -5.002262 2.277599 19.488889 4.354367 -4.918236 -25.705219 -16.303576 8.109642 43.120057 -0.872860 2.990170 -26.712420 -20.122286 -39.627135 11.432616 -24.269582 -29.843333 -3.225745 13.318546 -16.807387 -3.754558 -3.455921 2.613820 1.016670 -0.191600 0.390180 0.162540 12.885785 44.981886 14.480557 24.482079 19.645514 -15.144678 -20.182653 32.727548 -7.045465 1.560142 -1.299583 -0.260440 0.486420 -0.027620 -0.303020 
-2.347000 16.199460 -12.384420 -9.849386 -12.706731 -6.834753 -15.324454 12.079198 3.562922 11.638502 -5.833171 -23.070405 -17.367152 15.074562 36.646399 -0.100966 8.840570 1.283217 0.621540 0.379890 0.522290 18.228691 -8.076415 5.211110 -22.501095 5.807948 -31.867884 74.221602 -48.545279 38.638061 -3.046677 -12.307447 0.397204 0.308880 0.054790 0.249220 -3.299503 -3.909672 -9.711787 10.229084 -3.106571 25.674593 -4.330596 0.513348 19.138629 3.877976 -3.736948 -24.010430 -13.387003 7.366313 42.704805 -2.355660 3.624840 -24.124170 -15.291201 -40.359365 10.895585 -18.820489 -33.670145 -6.503900 14.609459 -25.172923 -5.021725 -3.456421 2.619576 0.944540 -0.089210 0.321530 0.136090 8.317354 43.498793 12.839764 21.613260 18.502790 -16.568326 -21.657249 38.449766 -8.416537 1.427042 -1.303851 -0.276270 0.466330 0.031630 -0.306740 
-2.426990 16.263290 -12.314600 -11.785861 -11.625159 -6.270637 -15.241284 11.922389 3.355412 13.692143 -5.554024 -22.323514 -16.674783 14.622148 35.715227 -0.161017 8.746760 1.351747 0.571770 0.354280 0.412030 18.382249 -8.055558 5.354146 -25.936399 3.424551 -36.012607 79.102867 -51.283801 36.467487 -2.968320 -12.263173 0.448387 0.331380 0.202760 0.263670 -3.648469 -3.686352 -9.551868 13.710350 -4.915858 24.664186 -4.264465 -1.404420 18.156902 2.795992 -3.521704 -20.989193 -12.108494 6.307597 39.926174 -2.190300 2.797470 -20.331750 -10.643320 -41.041036 8.059952 -14.000533 -35.957877 -8.075792 16.362813 -31.730892 -6.207641 -3.560426 2.666097 0.805890 0.044170 0.199640 0.177270 5.192467 41.901337 11.546948 17.422660 16.879990 -17.837521 -24.584143 45.026867 -10.644650 1.305661 -1.337995 -0.291660 0.478240 0.065700 -0.252870 
-2.509300 16.371640 -12.227440 -13.630505 -10.712145 -6.161225 -15.169314 11.974533 2.998088 15.297864 -4.658706 -20.052609 -15.405818 13.582513 33.240305 -0.228672 8.318943 1.563955 0.473250 0.269140 0.281290 18.506970 -8.100831 5.447503 -29.638205 1.094169 -38.273959 85.592057 -52.384256 32.409987 -2.851553 -11.998679 0.577811 0.293640 0.355790 0.275460 -3.922536 -3.592632 -9.303502 17.345976 -6.642318 24.125143 -4.531958 -3.082583 15.673846 1.922060 -2.990921 -17.835840 -10.881396 5.175074 38.801461 -2.061320 2.014570 -16.606070 -6.154996 -41.745500 3.131344 -9.327684 -35.680634 -7.523720 15.848354 -37.491867 -6.398634 -3.748323 2.777149 0.687310 0.163420 0.094340 0.218160 1.854705 40.682697 11.068753 12.933292 15.363724 -17.753671 -27.589402 49.194191 -12.252615 1.252746 -1.319390 -0.308910 0.495140 0.106730 -0.191210 
